<svg width="48" height="46" viewBox="0 0 48 46" fill="none" xmlns="http://www.w3.org/2000/svg">
<path d="M39.0254 27.799C39.9964 25.3971 40.4924 22.8296 40.4861 20.2389C40.4851 15.7424 38.9872 11.3743 36.2285 7.82352C33.4699 4.27278 29.6075 1.74156 25.2508 0.629212C20.8941 -0.483135 16.2911 -0.113298 12.1679 1.68037C8.04469 3.47404 4.63606 6.58944 2.4797 10.5351C0.323345 14.4807 -0.457944 19.032 0.259046 23.4709C0.976035 27.9098 3.15049 31.9837 6.43941 35.0498C9.72833 38.1159 13.9445 39.9997 18.4227 40.4041C22.9009 40.8084 27.3863 39.7102 31.1713 37.2828L38.9583 45.0698V36.3824H47.6064L39.0254 27.799ZM35.5879 12.6856C36.525 14.5867 37.0997 16.6458 37.2823 18.7574H12.8287C13.1732 17.0461 14.099 15.5065 15.4491 14.3999C16.7992 13.2933 18.4904 12.6876 20.2361 12.6856H35.5879ZM37.2661 21.8939C37.1556 23.0647 36.9229 24.2207 36.5717 25.343L33.125 21.8939H37.2661ZM17.8518 23.9588L21.5671 27.6763C21.1276 27.7534 20.6823 27.7922 20.2361 27.7921C18.5221 27.7867 16.8604 27.2006 15.5223 26.1294C14.1841 25.0583 13.2485 23.5652 12.868 21.8939C14.7373 21.8946 16.5298 22.6373 17.8518 23.9588ZM20.2361 37.3499C17.3416 37.3519 14.4939 36.6195 11.9594 35.2214C9.42496 33.8233 7.28659 31.805 5.7444 29.3556C4.20221 26.9061 3.3066 24.1054 3.14137 21.2156C2.97614 18.3258 3.54666 15.4414 4.7996 12.8321C6.05254 10.2228 7.94696 7.97397 10.3055 6.29606C12.6641 4.61815 15.4098 3.56597 18.2856 3.23798C21.1615 2.90999 24.0736 3.3169 26.7494 4.42065C29.4252 5.52439 31.7773 7.2889 33.5856 9.54906H20.2361C17.4021 9.55274 14.6852 10.6802 12.6813 12.6841C10.6774 14.688 9.54994 17.4049 9.54626 20.2389V20.343C9.56154 22.0718 9.99619 23.7709 10.8128 25.2947C11.6294 26.8185 12.8036 28.1213 14.2346 29.0914C15.6656 30.0614 17.3107 30.6696 19.0286 30.8638C20.7464 31.0581 22.4857 30.8325 24.0972 30.2064L28.8912 35.0004C26.2696 36.547 23.2798 37.3587 20.2361 37.3499ZM35.8217 33.2458V37.3499L20.3726 21.8939H28.6852L40.0277 33.2365L35.8217 33.2458Z" fill="#86774E"/>
</svg>
